<svg xmlns="http://www.w3.org/2000/svg" xmlns:xlink="http://www.w3.org/1999/xlink" width="576" zoomAndPan="magnify" viewBox="0 0 432 383.999986" height="512" preserveAspectRatio="xMidYMid meet" version="1.0"><path fill="#216dde" d="M 276 288 C 283.199219 264.074219 298.125 243.675781 312.898438 223.351562 C 316.800781 218.023438 320.699219 212.699219 324.449219 207.300781 C 339.300781 185.925781 348 160.050781 348 132.074219 C 348 59.101562 288.898438 0 216 0 C 143.101562 0 84 59.101562 84 132 C 84 159.976562 92.699219 185.925781 107.550781 207.226562 C 111.300781 212.625 115.199219 217.949219 119.101562 223.273438 C 133.949219 243.601562 148.875 264.074219 156 287.925781 L 276 287.925781 Z M 216 384 C 249.148438 384 276 357.148438 276 324 L 276 312 L 156 312 L 156 324 C 156 357.148438 182.851562 384 216 384 Z M 156 132 C 156 138.601562 150.601562 144 144 144 C 137.398438 144 132 138.601562 132 132 C 132 85.574219 169.574219 48 216 48 C 222.601562 48 228 53.398438 228 60 C 228 66.601562 222.601562 72 216 72 C 182.851562 72 156 98.851562 156 132 Z M 156 132 " fill-opacity="1" fill-rule="nonzero"/></svg>