<svg xmlns="http://www.w3.org/2000/svg" xmlns:xlink="http://www.w3.org/1999/xlink" width="576" zoomAndPan="magnify" viewBox="0 0 432 383.999986" height="512" preserveAspectRatio="xMidYMid meet" version="1.0"><path fill="#216dde" d="M 216 384 C 219.140625 384 222.28125 383.921875 225.421875 383.769531 C 228.558594 383.613281 231.691406 383.382812 234.820312 383.074219 C 237.945312 382.765625 241.0625 382.382812 244.171875 381.921875 C 247.28125 381.460938 250.375 380.921875 253.457031 380.3125 C 256.539062 379.699219 259.605469 379.007812 262.652344 378.246094 C 265.699219 377.484375 268.726562 376.644531 271.734375 375.734375 C 274.742188 374.820312 277.722656 373.835938 280.683594 372.777344 C 283.640625 371.71875 286.570312 370.585938 289.476562 369.386719 C 292.378906 368.183594 295.25 366.910156 298.089844 365.566406 C 300.929688 364.222656 303.738281 362.808594 306.507812 361.328125 C 309.28125 359.847656 312.011719 358.300781 314.707031 356.683594 C 317.402344 355.070312 320.058594 353.386719 322.667969 351.640625 C 325.28125 349.894531 327.851562 348.085938 330.375 346.214844 C 332.898438 344.34375 335.375 342.410156 337.804688 340.417969 C 340.234375 338.425781 342.609375 336.371094 344.9375 334.261719 C 347.265625 332.152344 349.542969 329.988281 351.765625 327.765625 C 353.988281 325.542969 356.152344 323.265625 358.261719 320.9375 C 360.371094 318.609375 362.425781 316.234375 364.417969 313.804688 C 366.410156 311.375 368.34375 308.898438 370.214844 306.375 C 372.085938 303.851562 373.894531 301.28125 375.640625 298.667969 C 377.386719 296.058594 379.070312 293.402344 380.683594 290.707031 C 382.300781 288.011719 383.847656 285.28125 385.328125 282.507812 C 386.808594 279.738281 388.222656 276.929688 389.566406 274.089844 C 390.910156 271.25 392.183594 268.378906 393.386719 265.476562 C 394.585938 262.570312 395.71875 259.640625 396.777344 256.683594 C 397.835938 253.722656 398.820312 250.742188 399.734375 247.734375 C 400.644531 244.726562 401.484375 241.699219 402.246094 238.652344 C 403.007812 235.605469 403.699219 232.539062 404.3125 229.457031 C 404.921875 226.375 405.460938 223.28125 405.921875 220.171875 C 406.382812 217.0625 406.765625 213.945312 407.074219 210.820312 C 407.382812 207.691406 407.613281 204.558594 407.769531 201.421875 C 407.921875 198.28125 408 195.140625 408 192 C 408 188.859375 407.921875 185.71875 407.769531 182.578125 C 407.613281 179.441406 407.382812 176.308594 407.074219 173.179688 C 406.765625 170.054688 406.382812 166.9375 405.921875 163.828125 C 405.460938 160.71875 404.921875 157.625 404.3125 154.542969 C 403.699219 151.460938 403.007812 148.394531 402.246094 145.347656 C 401.484375 142.300781 400.644531 139.273438 399.734375 136.265625 C 398.820312 133.257812 397.835938 130.277344 396.777344 127.316406 C 395.71875 124.359375 394.585938 121.429688 393.386719 118.523438 C 392.183594 115.621094 390.910156 112.75 389.566406 109.910156 C 388.222656 107.070312 386.808594 104.261719 385.328125 101.492188 C 383.847656 98.71875 382.300781 95.988281 380.683594 93.292969 C 379.070312 90.597656 377.386719 87.941406 375.640625 85.332031 C 373.894531 82.71875 372.085938 80.148438 370.214844 77.625 C 368.34375 75.101562 366.410156 72.625 364.417969 70.195312 C 362.425781 67.765625 360.371094 65.390625 358.261719 63.0625 C 356.152344 60.734375 353.988281 58.457031 351.765625 56.234375 C 349.542969 54.011719 347.265625 51.847656 344.9375 49.738281 C 342.609375 47.628906 340.234375 45.574219 337.804688 43.582031 C 335.375 41.589844 332.898438 39.65625 330.375 37.785156 C 327.851562 35.914062 325.28125 34.105469 322.667969 32.359375 C 320.058594 30.613281 317.402344 28.929688 314.707031 27.316406 C 312.011719 25.699219 309.28125 24.152344 306.507812 22.671875 C 303.738281 21.191406 300.929688 19.777344 298.089844 18.433594 C 295.25 17.089844 292.378906 15.816406 289.476562 14.613281 C 286.570312 13.414062 283.640625 12.28125 280.683594 11.222656 C 277.722656 10.164062 274.742188 9.179688 271.734375 8.265625 C 268.726562 7.355469 265.699219 6.515625 262.652344 5.753906 C 259.605469 4.992188 256.539062 4.300781 253.457031 3.6875 C 250.375 3.078125 247.28125 2.539062 244.171875 2.078125 C 241.0625 1.617188 237.945312 1.234375 234.820312 0.925781 C 231.691406 0.617188 228.558594 0.386719 225.421875 0.230469 C 222.28125 0.078125 219.140625 0 216 0 C 212.859375 0 209.71875 0.078125 206.578125 0.230469 C 203.441406 0.386719 200.308594 0.617188 197.179688 0.925781 C 194.054688 1.234375 190.9375 1.617188 187.828125 2.078125 C 184.71875 2.539062 181.625 3.078125 178.542969 3.6875 C 175.460938 4.300781 172.394531 4.992188 169.347656 5.753906 C 166.300781 6.515625 163.273438 7.355469 160.265625 8.265625 C 157.257812 9.179688 154.277344 10.164062 151.316406 11.222656 C 148.359375 12.28125 145.429688 13.414062 142.523438 14.613281 C 139.621094 15.816406 136.75 17.089844 133.910156 18.433594 C 131.070312 19.777344 128.261719 21.191406 125.492188 22.671875 C 122.71875 24.152344 119.988281 25.699219 117.292969 27.316406 C 114.597656 28.929688 111.941406 30.613281 109.332031 32.359375 C 106.71875 34.105469 104.148438 35.914062 101.625 37.785156 C 99.101562 39.65625 96.625 41.589844 94.195312 43.582031 C 91.765625 45.574219 89.390625 47.628906 87.0625 49.738281 C 84.734375 51.847656 82.457031 54.011719 80.234375 56.234375 C 78.011719 58.457031 75.847656 60.734375 73.738281 63.0625 C 71.628906 65.390625 69.574219 67.765625 67.582031 70.195312 C 65.589844 72.625 63.65625 75.101562 61.785156 77.625 C 59.914062 80.148438 58.105469 82.71875 56.359375 85.332031 C 54.613281 87.941406 52.929688 90.597656 51.316406 93.292969 C 49.699219 95.988281 48.152344 98.71875 46.671875 101.492188 C 45.191406 104.261719 43.777344 107.070312 42.433594 109.910156 C 41.089844 112.75 39.816406 115.621094 38.613281 118.523438 C 37.414062 121.429688 36.28125 124.359375 35.222656 127.316406 C 34.164062 130.277344 33.179688 133.257812 32.265625 136.265625 C 31.355469 139.273438 30.515625 142.300781 29.753906 145.347656 C 28.992188 148.394531 28.300781 151.460938 27.6875 154.542969 C 27.078125 157.625 26.539062 160.71875 26.078125 163.828125 C 25.617188 166.9375 25.234375 170.054688 24.925781 173.179688 C 24.617188 176.308594 24.386719 179.441406 24.230469 182.578125 C 24.078125 185.71875 24 188.859375 24 192 C 24 195.140625 24.078125 198.28125 24.230469 201.421875 C 24.386719 204.558594 24.617188 207.691406 24.925781 210.820312 C 25.234375 213.945312 25.617188 217.0625 26.078125 220.171875 C 26.539062 223.28125 27.078125 226.375 27.6875 229.457031 C 28.300781 232.539062 28.992188 235.605469 29.753906 238.652344 C 30.515625 241.699219 31.355469 244.726562 32.265625 247.734375 C 33.179688 250.742188 34.164062 253.722656 35.222656 256.683594 C 36.28125 259.640625 37.414062 262.570312 38.613281 265.476562 C 39.816406 268.378906 41.089844 271.25 42.433594 274.089844 C 43.777344 276.929688 45.191406 279.738281 46.671875 282.507812 C 48.152344 285.28125 49.699219 288.011719 51.316406 290.707031 C 52.929688 293.402344 54.613281 296.058594 56.359375 298.667969 C 58.105469 301.28125 59.914062 303.851562 61.785156 306.375 C 63.65625 308.898438 65.589844 311.375 67.582031 313.804688 C 69.574219 316.234375 71.628906 318.609375 73.738281 320.9375 C 75.847656 323.265625 78.011719 325.542969 80.234375 327.765625 C 82.457031 329.988281 84.734375 332.152344 87.0625 334.261719 C 89.390625 336.371094 91.765625 338.425781 94.195312 340.417969 C 96.625 342.410156 99.101562 344.34375 101.625 346.214844 C 104.148438 348.085938 106.71875 349.894531 109.332031 351.640625 C 111.941406 353.386719 114.597656 355.070312 117.292969 356.683594 C 119.988281 358.300781 122.71875 359.847656 125.492188 361.328125 C 128.261719 362.808594 131.070312 364.222656 133.910156 365.566406 C 136.75 366.910156 139.621094 368.183594 142.523438 369.386719 C 145.429688 370.585938 148.359375 371.71875 151.316406 372.777344 C 154.277344 373.835938 157.257812 374.820312 160.265625 375.734375 C 163.273438 376.644531 166.300781 377.484375 169.347656 378.246094 C 172.394531 379.007812 175.460938 379.699219 178.542969 380.3125 C 181.625 380.921875 184.71875 381.460938 187.828125 381.921875 C 190.9375 382.382812 194.054688 382.765625 197.179688 383.074219 C 200.308594 383.382812 203.441406 383.613281 206.578125 383.769531 C 209.71875 383.921875 212.859375 384 216 384 Z M 254.023438 243.824219 L 145.800781 285.449219 C 131.25 291.074219 116.925781 276.75 122.550781 262.199219 L 164.175781 153.976562 C 166.648438 147.601562 171.601562 142.648438 177.976562 140.175781 L 286.199219 98.550781 C 300.75 92.925781 315.074219 107.25 309.449219 121.800781 L 267.824219 230.023438 C 265.425781 236.398438 260.398438 241.351562 254.023438 243.824219 Z M 240 192 C 240 191.214844 239.960938 190.429688 239.882812 189.648438 C 239.808594 188.867188 239.691406 188.089844 239.539062 187.316406 C 239.386719 186.546875 239.195312 185.785156 238.964844 185.03125 C 238.738281 184.28125 238.472656 183.542969 238.171875 182.816406 C 237.871094 182.089844 237.535156 181.378906 237.167969 180.6875 C 236.796875 179.992188 236.390625 179.320312 235.957031 178.667969 C 235.519531 178.011719 235.050781 177.382812 234.550781 176.773438 C 234.054688 176.167969 233.527344 175.585938 232.96875 175.03125 C 232.414062 174.472656 231.832031 173.945312 231.226562 173.449219 C 230.617188 172.949219 229.988281 172.480469 229.332031 172.042969 C 228.679688 171.609375 228.007812 171.203125 227.3125 170.832031 C 226.621094 170.464844 225.910156 170.128906 225.183594 169.828125 C 224.457031 169.527344 223.71875 169.261719 222.96875 169.035156 C 222.214844 168.804688 221.453125 168.613281 220.683594 168.460938 C 219.910156 168.308594 219.132812 168.191406 218.351562 168.117188 C 217.570312 168.039062 216.785156 168 216 168 C 215.214844 168 214.429688 168.039062 213.648438 168.117188 C 212.867188 168.191406 212.089844 168.308594 211.316406 168.460938 C 210.546875 168.613281 209.785156 168.804688 209.03125 169.035156 C 208.28125 169.261719 207.542969 169.527344 206.816406 169.828125 C 206.089844 170.128906 205.378906 170.464844 204.6875 170.832031 C 203.992188 171.203125 203.320312 171.609375 202.667969 172.042969 C 202.011719 172.480469 201.382812 172.949219 200.773438 173.449219 C 200.167969 173.945312 199.585938 174.472656 199.03125 175.03125 C 198.472656 175.585938 197.945312 176.167969 197.449219 176.773438 C 196.949219 177.382812 196.480469 178.011719 196.042969 178.667969 C 195.609375 179.320312 195.203125 179.992188 194.832031 180.6875 C 194.464844 181.378906 194.128906 182.089844 193.828125 182.816406 C 193.527344 183.542969 193.261719 184.28125 193.035156 185.03125 C 192.804688 185.785156 192.613281 186.546875 192.460938 187.316406 C 192.308594 188.089844 192.191406 188.867188 192.117188 189.648438 C 192.039062 190.429688 192 191.214844 192 192 C 192 192.785156 192.039062 193.570312 192.117188 194.351562 C 192.191406 195.132812 192.308594 195.910156 192.460938 196.683594 C 192.613281 197.453125 192.804688 198.214844 193.035156 198.96875 C 193.261719 199.71875 193.527344 200.457031 193.828125 201.183594 C 194.128906 201.910156 194.464844 202.621094 194.832031 203.3125 C 195.203125 204.007812 195.609375 204.679688 196.042969 205.332031 C 196.480469 205.988281 196.949219 206.617188 197.449219 207.226562 C 197.945312 207.832031 198.472656 208.414062 199.03125 208.96875 C 199.585938 209.527344 200.167969 210.054688 200.773438 210.550781 C 201.382812 211.050781 202.011719 211.519531 202.667969 211.957031 C 203.320312 212.390625 203.992188 212.796875 204.6875 213.167969 C 205.378906 213.535156 206.089844 213.871094 206.816406 214.171875 C 207.542969 214.472656 208.28125 214.738281 209.03125 214.964844 C 209.785156 215.195312 210.546875 215.386719 211.316406 215.539062 C 212.089844 215.691406 212.867188 215.808594 213.648438 215.882812 C 214.429688 215.960938 215.214844 216 216 216 C 216.785156 216 217.570312 215.960938 218.351562 215.882812 C 219.132812 215.808594 219.910156 215.691406 220.683594 215.539062 C 221.453125 215.386719 222.214844 215.195312 222.96875 214.964844 C 223.71875 214.738281 224.457031 214.472656 225.183594 214.171875 C 225.910156 213.871094 226.621094 213.535156 227.3125 213.167969 C 228.007812 212.796875 228.679688 212.390625 229.332031 211.957031 C 229.988281 211.519531 230.617188 211.050781 231.226562 210.550781 C 231.832031 210.054688 232.414062 209.527344 232.96875 208.96875 C 233.527344 208.414062 234.054688 207.832031 234.550781 207.226562 C 235.050781 206.617188 235.519531 205.988281 235.957031 205.332031 C 236.390625 204.679688 236.796875 204.007812 237.167969 203.3125 C 237.535156 202.621094 237.871094 201.910156 238.171875 201.183594 C 238.472656 200.457031 238.738281 199.71875 238.964844 198.96875 C 239.195312 198.214844 239.386719 197.453125 239.539062 196.683594 C 239.691406 195.910156 239.808594 195.132812 239.882812 194.351562 C 239.960938 193.570312 240 192.785156 240 192 Z M 240 192 " fill-opacity="1" fill-rule="nonzero"/></svg>