<svg xmlns="http://www.w3.org/2000/svg" xmlns:xlink="http://www.w3.org/1999/xlink" width="576" zoomAndPan="magnify" viewBox="0 0 432 383.999986" height="512" preserveAspectRatio="xMidYMid meet" version="1.0"><path fill="#216dde" d="M 216 0 C 212.859375 0 209.71875 0.078125 206.578125 0.230469 C 203.441406 0.386719 200.308594 0.617188 197.179688 0.925781 C 194.054688 1.234375 190.9375 1.617188 187.828125 2.078125 C 184.71875 2.539062 181.625 3.078125 178.542969 3.6875 C 175.460938 4.300781 172.394531 4.992188 169.347656 5.753906 C 166.300781 6.515625 163.273438 7.355469 160.265625 8.265625 C 157.257812 9.179688 154.277344 10.164062 151.316406 11.222656 C 148.359375 12.28125 145.429688 13.414062 142.523438 14.613281 C 139.621094 15.816406 136.75 17.089844 133.910156 18.433594 C 131.070312 19.777344 128.261719 21.191406 125.492188 22.671875 C 122.71875 24.152344 119.988281 25.699219 117.292969 27.316406 C 114.597656 28.929688 111.941406 30.613281 109.332031 32.359375 C 106.71875 34.105469 104.148438 35.914062 101.625 37.785156 C 99.101562 39.65625 96.625 41.589844 94.195312 43.582031 C 91.765625 45.574219 89.390625 47.628906 87.0625 49.738281 C 84.734375 51.847656 82.457031 54.011719 80.234375 56.234375 C 78.011719 58.457031 75.847656 60.734375 73.738281 63.0625 C 71.628906 65.390625 69.574219 67.765625 67.582031 70.195312 C 65.589844 72.625 63.65625 75.101562 61.785156 77.625 C 59.914062 80.148438 58.105469 82.71875 56.359375 85.332031 C 54.613281 87.941406 52.929688 90.597656 51.316406 93.292969 C 49.699219 95.988281 48.152344 98.71875 46.671875 101.492188 C 45.191406 104.261719 43.777344 107.070312 42.433594 109.910156 C 41.089844 112.75 39.816406 115.621094 38.613281 118.523438 C 37.414062 121.429688 36.28125 124.359375 35.222656 127.316406 C 34.164062 130.277344 33.179688 133.257812 32.265625 136.265625 C 31.355469 139.273438 30.515625 142.300781 29.753906 145.347656 C 28.992188 148.394531 28.300781 151.460938 27.6875 154.542969 C 27.078125 157.625 26.539062 160.71875 26.078125 163.828125 C 25.617188 166.9375 25.234375 170.054688 24.925781 173.179688 C 24.617188 176.308594 24.386719 179.441406 24.230469 182.578125 C 24.078125 185.71875 24 188.859375 24 192 C 24 195.140625 24.078125 198.28125 24.230469 201.421875 C 24.386719 204.558594 24.617188 207.691406 24.925781 210.820312 C 25.234375 213.945312 25.617188 217.0625 26.078125 220.171875 C 26.539062 223.28125 27.078125 226.375 27.6875 229.457031 C 28.300781 232.539062 28.992188 235.605469 29.753906 238.652344 C 30.515625 241.699219 31.355469 244.726562 32.265625 247.734375 C 33.179688 250.742188 34.164062 253.722656 35.222656 256.683594 C 36.28125 259.640625 37.414062 262.570312 38.613281 265.476562 C 39.816406 268.378906 41.089844 271.25 42.433594 274.089844 C 43.777344 276.929688 45.191406 279.738281 46.671875 282.507812 C 48.152344 285.28125 49.699219 288.011719 51.316406 290.707031 C 52.929688 293.402344 54.613281 296.058594 56.359375 298.667969 C 58.105469 301.28125 59.914062 303.851562 61.785156 306.375 C 63.65625 308.898438 65.589844 311.375 67.582031 313.804688 C 69.574219 316.234375 71.628906 318.609375 73.738281 320.9375 C 75.847656 323.265625 78.011719 325.542969 80.234375 327.765625 C 82.457031 329.988281 84.734375 332.152344 87.0625 334.261719 C 89.390625 336.371094 91.765625 338.425781 94.195312 340.417969 C 96.625 342.410156 99.101562 344.34375 101.625 346.214844 C 104.148438 348.085938 106.71875 349.894531 109.332031 351.640625 C 111.941406 353.386719 114.597656 355.070312 117.292969 356.683594 C 119.988281 358.300781 122.71875 359.847656 125.492188 361.328125 C 128.261719 362.808594 131.070312 364.222656 133.910156 365.566406 C 136.75 366.910156 139.621094 368.183594 142.523438 369.386719 C 145.429688 370.585938 148.359375 371.71875 151.316406 372.777344 C 154.277344 373.835938 157.257812 374.820312 160.265625 375.734375 C 163.273438 376.644531 166.300781 377.484375 169.347656 378.246094 C 172.394531 379.007812 175.460938 379.699219 178.542969 380.3125 C 181.625 380.921875 184.71875 381.460938 187.828125 381.921875 C 190.9375 382.382812 194.054688 382.765625 197.179688 383.074219 C 200.308594 383.382812 203.441406 383.613281 206.578125 383.769531 C 209.71875 383.921875 212.859375 384 216 384 C 219.140625 384 222.28125 383.921875 225.421875 383.769531 C 228.558594 383.613281 231.691406 383.382812 234.820312 383.074219 C 237.945312 382.765625 241.0625 382.382812 244.171875 381.921875 C 247.28125 381.460938 250.375 380.921875 253.457031 380.3125 C 256.539062 379.699219 259.605469 379.007812 262.652344 378.246094 C 265.699219 377.484375 268.726562 376.644531 271.734375 375.734375 C 274.742188 374.820312 277.722656 373.835938 280.683594 372.777344 C 283.640625 371.71875 286.570312 370.585938 289.476562 369.386719 C 292.378906 368.183594 295.25 366.910156 298.089844 365.566406 C 300.929688 364.222656 303.738281 362.808594 306.507812 361.328125 C 309.28125 359.847656 312.011719 358.300781 314.707031 356.683594 C 317.402344 355.070312 320.058594 353.386719 322.667969 351.640625 C 325.28125 349.894531 327.851562 348.085938 330.375 346.214844 C 332.898438 344.34375 335.375 342.410156 337.804688 340.417969 C 340.234375 338.425781 342.609375 336.371094 344.9375 334.261719 C 347.265625 332.152344 349.542969 329.988281 351.765625 327.765625 C 353.988281 325.542969 356.152344 323.265625 358.261719 320.9375 C 360.371094 318.609375 362.425781 316.234375 364.417969 313.804688 C 366.410156 311.375 368.34375 308.898438 370.214844 306.375 C 372.085938 303.851562 373.894531 301.28125 375.640625 298.667969 C 377.386719 296.058594 379.070312 293.402344 380.683594 290.707031 C 382.300781 288.011719 383.847656 285.28125 385.328125 282.507812 C 386.808594 279.738281 388.222656 276.929688 389.566406 274.089844 C 390.910156 271.25 392.183594 268.378906 393.386719 265.476562 C 394.585938 262.570312 395.71875 259.640625 396.777344 256.683594 C 397.835938 253.722656 398.820312 250.742188 399.734375 247.734375 C 400.644531 244.726562 401.484375 241.699219 402.246094 238.652344 C 403.007812 235.605469 403.699219 232.539062 404.3125 229.457031 C 404.921875 226.375 405.460938 223.28125 405.921875 220.171875 C 406.382812 217.0625 406.765625 213.945312 407.074219 210.820312 C 407.382812 207.691406 407.613281 204.558594 407.769531 201.421875 C 407.921875 198.28125 408 195.140625 408 192 C 408 188.859375 407.921875 185.71875 407.769531 182.578125 C 407.613281 179.441406 407.382812 176.308594 407.074219 173.179688 C 406.765625 170.054688 406.382812 166.9375 405.921875 163.828125 C 405.460938 160.71875 404.921875 157.625 404.3125 154.542969 C 403.699219 151.460938 403.007812 148.394531 402.246094 145.347656 C 401.484375 142.300781 400.644531 139.273438 399.734375 136.265625 C 398.820312 133.257812 397.835938 130.277344 396.777344 127.316406 C 395.71875 124.359375 394.585938 121.429688 393.386719 118.523438 C 392.183594 115.621094 390.910156 112.75 389.566406 109.910156 C 388.222656 107.070312 386.808594 104.261719 385.328125 101.492188 C 383.847656 98.71875 382.300781 95.988281 380.683594 93.292969 C 379.070312 90.597656 377.386719 87.941406 375.640625 85.332031 C 373.894531 82.71875 372.085938 80.148438 370.214844 77.625 C 368.34375 75.101562 366.410156 72.625 364.417969 70.195312 C 362.425781 67.765625 360.371094 65.390625 358.261719 63.0625 C 356.152344 60.734375 353.988281 58.457031 351.765625 56.234375 C 349.542969 54.011719 347.265625 51.847656 344.9375 49.738281 C 342.609375 47.628906 340.234375 45.574219 337.804688 43.582031 C 335.375 41.589844 332.898438 39.65625 330.375 37.785156 C 327.851562 35.914062 325.28125 34.105469 322.667969 32.359375 C 320.058594 30.613281 317.402344 28.929688 314.707031 27.316406 C 312.011719 25.699219 309.28125 24.152344 306.507812 22.671875 C 303.738281 21.191406 300.929688 19.777344 298.089844 18.433594 C 295.25 17.089844 292.378906 15.816406 289.476562 14.613281 C 286.570312 13.414062 283.640625 12.28125 280.683594 11.222656 C 277.722656 10.164062 274.742188 9.179688 271.734375 8.265625 C 268.726562 7.355469 265.699219 6.515625 262.652344 5.753906 C 259.605469 4.992188 256.539062 4.300781 253.457031 3.6875 C 250.375 3.078125 247.28125 2.539062 244.171875 2.078125 C 241.0625 1.617188 237.945312 1.234375 234.820312 0.925781 C 231.691406 0.617188 228.558594 0.386719 225.421875 0.230469 C 222.28125 0.078125 219.140625 0 216 0 Z M 207.523438 296.476562 L 123.523438 212.476562 C 120.074219 209.023438 119.101562 203.851562 120.898438 199.425781 C 122.699219 195 127.125 192 132 192 L 180 192 L 180 120 C 180 106.726562 190.726562 96 204 96 L 228 96 C 241.273438 96 252 106.726562 252 120 L 252 192 L 300 192 C 304.875 192 309.226562 194.925781 311.101562 199.425781 C 312.976562 203.925781 311.925781 209.101562 308.476562 212.476562 L 224.476562 296.476562 C 219.824219 301.125 212.175781 301.125 207.523438 296.476562 Z M 207.523438 296.476562 " fill-opacity="1" fill-rule="nonzero"/></svg>