<svg xmlns="http://www.w3.org/2000/svg" xmlns:xlink="http://www.w3.org/1999/xlink" width="576" zoomAndPan="magnify" viewBox="0 0 432 383.999986" height="512" preserveAspectRatio="xMidYMid meet" version="1.0"><path fill="#216dde" d="M 0 60 L 0 96 C 0 109.273438 10.726562 120 24 120 L 72 120 L 72 60 C 72 40.125 55.875 24 36 24 C 16.125 24 0 40.125 0 60 Z M 84 24 C 91.5 34.050781 96 46.5 96 60 L 96 288 C 96 314.476562 117.523438 336 144 336 C 170.476562 336 192 314.476562 192 288 L 192 284.023438 C 192 259.726562 211.726562 240 236.023438 240 L 360 240 L 360 96 C 360 56.25 327.75 24 288 24 Z M 348 360 C 394.425781 360 432 322.425781 432 276 C 432 269.398438 426.601562 264 420 264 L 236.023438 264 C 225 264 216 272.925781 216 284.023438 L 216 288 C 216 327.75 183.75 360 144 360 Z M 348 360 " fill-opacity="1" fill-rule="nonzero"/></svg>