<svg xmlns="http://www.w3.org/2000/svg" xmlns:xlink="http://www.w3.org/1999/xlink" width="576" zoomAndPan="magnify" viewBox="0 0 432 383.999986" height="512" preserveAspectRatio="xMidYMid meet" version="1.0"><path fill="#216dde" d="M 176.019531 32.023438 L 147.746094 42.601562 C 145.496094 43.425781 143.996094 45.601562 143.996094 48 C 143.996094 50.398438 145.496094 52.574219 147.746094 53.398438 L 176.019531 63.976562 L 186.597656 92.25 C 187.421875 94.5 189.597656 96 191.996094 96 C 194.394531 96 196.570312 94.5 197.394531 92.25 L 207.972656 63.976562 L 236.246094 53.398438 C 238.496094 52.574219 239.996094 50.398438 239.996094 48 C 239.996094 45.601562 238.496094 43.425781 236.246094 42.601562 L 207.972656 32.023438 L 197.394531 3.75 C 196.570312 1.5 194.394531 0 191.996094 0 C 189.597656 0 187.421875 1.5 186.597656 3.75 Z M 34.570312 296.550781 C 20.546875 310.574219 20.546875 333.375 34.570312 347.476562 L 60.519531 373.425781 C 74.546875 387.449219 97.347656 387.449219 111.445312 373.425781 L 397.421875 87.375 C 411.445312 73.351562 411.445312 50.550781 397.421875 36.449219 L 371.472656 10.574219 C 357.445312 -3.449219 334.644531 -3.449219 320.546875 10.574219 Z M 363.445312 61.949219 L 284.695312 140.699219 L 267.222656 123.226562 L 345.972656 44.476562 Z M 5.621094 87.898438 C 2.246094 89.175781 -0.00390625 92.398438 -0.00390625 96 C -0.00390625 99.601562 2.246094 102.824219 5.621094 104.101562 L 47.996094 120 L 63.894531 162.375 C 65.171875 165.75 68.394531 168 71.996094 168 C 75.597656 168 78.820312 165.75 80.097656 162.375 L 95.996094 120 L 138.371094 104.101562 C 141.746094 102.824219 143.996094 99.601562 143.996094 96 C 143.996094 92.398438 141.746094 89.175781 138.371094 87.898438 L 95.996094 72 L 80.097656 29.625 C 78.820312 26.25 75.597656 24 71.996094 24 C 68.394531 24 65.171875 26.25 63.894531 29.625 L 47.996094 72 Z M 269.621094 279.898438 C 266.246094 281.175781 263.996094 284.398438 263.996094 288 C 263.996094 291.601562 266.246094 294.824219 269.621094 296.101562 L 311.996094 312 L 327.894531 354.375 C 329.171875 357.75 332.394531 360 335.996094 360 C 339.597656 360 342.820312 357.75 344.097656 354.375 L 359.996094 312 L 402.371094 296.101562 C 405.746094 294.824219 407.996094 291.601562 407.996094 288 C 407.996094 284.398438 405.746094 281.175781 402.371094 279.898438 L 359.996094 264 L 344.097656 221.625 C 342.820312 218.25 339.597656 216 335.996094 216 C 332.394531 216 329.171875 218.25 327.894531 221.625 L 311.996094 264 Z M 269.621094 279.898438 " fill-opacity="1" fill-rule="nonzero"/></svg>